<svg id="visual" viewBox="0 0 960 540" width="960" height="540" xmlns="http://www.w3.org/2000/svg" xmlns:xlink="http://www.w3.org/1999/xlink" version="1.1"><rect x="0" y="0" width="960" height="540" fill="#202731"></rect><path d="M0 161L22.8 166.5C45.7 172 91.3 183 137 188.2C182.7 193.3 228.3 192.7 274 188.3C319.7 184 365.3 176 411.2 174.3C457 172.7 503 177.3 548.8 185.3C594.7 193.3 640.3 204.7 686 205.2C731.7 205.7 777.3 195.3 823 182.8C868.7 170.3 914.3 155.7 937.2 148.3L960 141L960 0L937.2 0C914.3 0 868.7 0 823 0C777.3 0 731.7 0 686 0C640.3 0 594.7 0 548.8 0C503 0 457 0 411.2 0C365.3 0 319.7 0 274 0C228.3 0 182.7 0 137 0C91.3 0 45.7 0 22.8 0L0 0Z" fill="#ed1a6b"></path><path d="M0 121L22.8 130.5C45.7 140 91.3 159 137 159.8C182.7 160.7 228.3 143.3 274 140.5C319.7 137.7 365.3 149.3 411.2 151.2C457 153 503 145 548.8 147C594.7 149 640.3 161 686 163C731.7 165 777.3 157 823 150.8C868.7 144.7 914.3 140.3 937.2 138.2L960 136L960 0L937.2 0C914.3 0 868.7 0 823 0C777.3 0 731.7 0 686 0C640.3 0 594.7 0 548.8 0C503 0 457 0 411.2 0C365.3 0 319.7 0 274 0C228.3 0 182.7 0 137 0C91.3 0 45.7 0 22.8 0L0 0Z" fill="#eb225c"></path><path d="M0 88L22.8 86.8C45.7 85.7 91.3 83.3 137 84C182.7 84.7 228.3 88.3 274 92.3C319.7 96.3 365.3 100.7 411.2 105.3C457 110 503 115 548.8 120.7C594.7 126.3 640.3 132.7 686 134.3C731.7 136 777.3 133 823 126.7C868.7 120.3 914.3 110.7 937.2 105.8L960 101L960 0L937.2 0C914.3 0 868.7 0 823 0C777.3 0 731.7 0 686 0C640.3 0 594.7 0 548.8 0C503 0 457 0 411.2 0C365.3 0 319.7 0 274 0C228.3 0 182.7 0 137 0C91.3 0 45.7 0 22.8 0L0 0Z" fill="#e82c4d"></path><path d="M0 50L22.8 54.3C45.7 58.7 91.3 67.3 137 71.7C182.7 76 228.3 76 274 73.2C319.7 70.3 365.3 64.7 411.2 65.8C457 67 503 75 548.8 75C594.7 75 640.3 67 686 68.8C731.7 70.7 777.3 82.3 823 89.7C868.7 97 914.3 100 937.2 101.5L960 103L960 0L937.2 0C914.3 0 868.7 0 823 0C777.3 0 731.7 0 686 0C640.3 0 594.7 0 548.8 0C503 0 457 0 411.2 0C365.3 0 319.7 0 274 0C228.3 0 182.7 0 137 0C91.3 0 45.7 0 22.8 0L0 0Z" fill="#e3363f"></path><path d="M0 22L22.8 25.7C45.7 29.3 91.3 36.7 137 41.3C182.7 46 228.3 48 274 46.3C319.7 44.7 365.3 39.3 411.2 41.7C457 44 503 54 548.8 54.7C594.7 55.3 640.3 46.7 686 45.8C731.7 45 777.3 52 823 51.5C868.7 51 914.3 43 937.2 39L960 35L960 0L937.2 0C914.3 0 868.7 0 823 0C777.3 0 731.7 0 686 0C640.3 0 594.7 0 548.8 0C503 0 457 0 411.2 0C365.3 0 319.7 0 274 0C228.3 0 182.7 0 137 0C91.3 0 45.7 0 22.8 0L0 0Z" fill="#dd3f31"></path></svg>