<svg id="visual" viewBox="0 0 900 600" width="900" height="600" xmlns="http://www.w3.org/2000/svg" xmlns:xlink="http://www.w3.org/1999/xlink" version="1.1"><rect x="0" y="0" width="900" height="600" fill="#FF0066"></rect><g transform="translate(456.10591469826187 280.08091576728395)"><path d="M121.2 -170.7C133.5 -134.1 103.7 -73.5 91.6 -32.4C79.6 8.8 85.2 30.7 87.7 73.4C90.1 116.1 89.4 179.8 57.1 218C24.9 256.2 -38.9 269.1 -80.2 243.8C-121.5 218.6 -140.4 155.3 -135.6 106.1C-130.9 57 -102.4 22 -99.8 -21.9C-97.2 -65.9 -120.6 -118.7 -108.3 -155.4C-96 -192.1 -48 -212.5 3.2 -216.4C54.4 -220.2 108.8 -207.4 121.2 -170.7" fill="#BB004B"></path></g></svg>